<svg viewBox="0 0 27 24" fill="none" xmlns="http://www.w3.org/2000/svg">
<mask id="path-1-outside-1" maskUnits="userSpaceOnUse" x="0" y="0"  fill="black">
<rect fill="white" />
<path d="M25.8797 5.72365C25.8791 5.72312 25.8785 5.72255 25.8779 5.72202L20.8774 1.11267C20.7979 1.0382 20.6884 0.99748 20.5751 1.00012C20.462 1.00199 20.3546 1.04626 20.2776 1.1228L18.7296 2.65925C18.5786 2.80915 18.5815 3.04182 18.7361 3.18851L18.8535 3.29976L18.2388 3.86632L17.2679 3.64277C16.397 3.44629 15.4782 3.68684 14.8494 4.27598L13.0782 6.17873L11.0201 4.28159C10.4333 3.73769 9.56248 3.54808 8.77376 3.79243C8.72667 3.80702 8.68276 3.82911 8.64395 3.85768L8.53082 3.9417L8.25652 3.68891L8.79532 3.19225C8.95805 3.04235 8.9581 2.79921 8.79548 2.64926C8.79543 2.64921 8.79538 2.64916 8.79532 2.64912L7.1285 1.11267C6.96588 0.96267 6.7021 0.962622 6.53943 1.11252C6.53938 1.11257 6.53932 1.11262 6.53927 1.11267L1.12208 6.10613C0.959358 6.25603 0.959306 6.49917 1.12193 6.64912C1.12198 6.64917 1.12203 6.64922 1.12208 6.64927L2.78891 8.18572C2.95153 8.33571 3.21531 8.33576 3.37803 8.18586C3.37808 8.18581 3.37813 8.18576 3.37819 8.18572L3.56638 8.01224L4.55382 8.92244L4.3113 9.81747C4.09857 10.6084 4.34859 11.4444 4.97094 12.0231L8.50076 15.3705V18.3733C8.50842 19.0618 8.92752 19.6902 9.59056 20.0073C9.94606 20.1817 10.1681 20.5228 10.1676 20.8941V20.974H9.75088C9.52086 20.9738 9.33433 21.1456 9.33418 21.3577C9.33418 21.3578 9.33418 21.3579 9.33418 21.3581V23.2787C9.33402 23.4907 9.52039 23.6626 9.75041 23.6628C9.75057 23.6628 9.75073 23.6628 9.75088 23.6628H17.6683C17.8983 23.6629 18.0849 23.4911 18.085 23.2791C18.085 23.2789 18.085 23.2788 18.085 23.2787V21.3581C18.0852 21.1461 17.8988 20.9741 17.6688 20.974C17.6686 20.974 17.6685 20.974 17.6683 20.974H17.2516V20.588L17.9121 20.0265C18.5441 19.5857 18.9164 18.898 18.9184 18.1674V13.6677C19.4119 13.6131 19.8706 13.4057 20.2194 13.0794L22.4222 10.8745C22.94 10.4007 23.1203 9.69657 22.8869 9.05933C22.8202 8.87409 23.1791 8.26787 23.6068 7.80295C23.6831 7.87276 23.7858 7.91261 23.8933 7.9141H23.8974C24.0071 7.9141 24.1124 7.8742 24.1904 7.80304L25.8763 6.26659C26.0399 6.11756 26.0414 5.87446 25.8797 5.72365ZM3.08357 7.37101L2.00602 6.3777L6.83394 1.92737L7.91154 2.92064L3.08357 7.37101ZM8.53769 14.3034L5.56428 11.4837C5.14596 11.0957 4.9774 10.5347 5.1195 10.0035L5.41942 8.89772C5.4551 8.76688 5.41349 8.62841 5.30993 8.5331L4.15566 7.46911L7.66735 4.23209L8.20615 4.72875C8.35663 4.86737 8.59619 4.87932 8.76204 4.7565L9.10426 4.50256C9.57712 4.3807 10.0846 4.50395 10.4309 4.82478L12.728 6.9422L12.724 6.94494C12.5381 7.10237 12.3996 7.30154 12.322 7.52298C12.0637 7.39396 11.7694 7.33947 11.4771 7.36655C10.7208 7.45749 10.158 8.05589 10.1676 8.75896V12.776C9.33881 12.9337 8.69516 13.5369 8.53769 14.3034ZM17.2516 22.8945H10.1676V21.7422H17.2516V22.8945ZM18.085 18.1674C18.0802 18.6694 17.8186 19.1399 17.3794 19.4368L16.5529 20.1368C16.467 20.2095 16.4181 20.3121 16.4182 20.4196V20.974H11.001V20.8941C11.0019 20.239 10.61 19.637 9.98242 19.3295C9.59139 19.1456 9.3422 18.778 9.33418 18.3734V14.6579C9.33579 14.1712 9.66952 13.7381 10.1676 13.5764V15.9806H11.001V8.75891C10.9882 8.44936 11.2283 8.17976 11.5601 8.13098C11.7369 8.11417 11.9132 8.16718 12.0452 8.27689C12.177 8.3856 12.2519 8.54112 12.2511 8.70412V14.4441H13.0845V7.9359C13.0843 7.61781 13.3638 7.35978 13.7089 7.35954C13.7282 7.35954 13.7474 7.36035 13.7666 7.36194C14.1041 7.41379 14.3473 7.68858 14.3347 8.00374V14.444H15.1681V9.08824C15.1678 8.77014 15.4474 8.51212 15.7925 8.51188C15.8117 8.51188 15.831 8.51269 15.8501 8.51428C16.1876 8.56613 16.4308 8.84092 16.4182 9.15608V14.444H17.2516V11.2716C17.7497 11.4333 18.0834 11.8664 18.085 12.3531V18.1674ZM22.0966 9.30243C22.229 9.66916 22.1219 10.0733 21.8211 10.3426L19.6183 12.5475C19.4278 12.7251 19.1841 12.8461 18.9184 12.8952V12.3532C18.9171 11.4409 18.2209 10.6549 17.2516 10.4713V9.15613C17.2662 8.44211 16.6917 7.83396 15.9225 7.74907C15.6612 7.72881 15.3987 7.77284 15.1619 7.8766C15.1128 7.21199 14.5567 6.67404 13.8389 6.59674C13.8212 6.59535 13.8038 6.59842 13.7861 6.59765L15.4602 4.79775C15.8812 4.41229 16.4898 4.25692 17.066 4.38775L18.2656 4.66422C18.4076 4.69701 18.5577 4.6587 18.6612 4.56329L19.4344 3.85052L23.0249 7.254C22.6403 7.66529 21.8501 8.62111 22.0966 9.30243ZM23.9031 6.9846L19.6098 2.91463L20.5938 1.93745L24.9924 5.992L23.9031 6.9846Z"/>
</mask>
<path d="M25.8797 5.72365C25.8791 5.72312 25.8785 5.72255 25.8779 5.72202L20.8774 1.11267C20.7979 1.0382 20.6884 0.99748 20.5751 1.00012C20.462 1.00199 20.3546 1.04626 20.2776 1.1228L18.7296 2.65925C18.5786 2.80915 18.5815 3.04182 18.7361 3.18851L18.8535 3.29976L18.2388 3.86632L17.2679 3.64277C16.397 3.44629 15.4782 3.68684 14.8494 4.27598L13.0782 6.17873L11.0201 4.28159C10.4333 3.73769 9.56248 3.54808 8.77376 3.79243C8.72667 3.80702 8.68276 3.82911 8.64395 3.85768L8.53082 3.9417L8.25652 3.68891L8.79532 3.19225C8.95805 3.04235 8.9581 2.79921 8.79548 2.64926C8.79543 2.64921 8.79538 2.64916 8.79532 2.64912L7.1285 1.11267C6.96588 0.96267 6.7021 0.962622 6.53943 1.11252C6.53938 1.11257 6.53932 1.11262 6.53927 1.11267L1.12208 6.10613C0.959358 6.25603 0.959306 6.49917 1.12193 6.64912C1.12198 6.64917 1.12203 6.64922 1.12208 6.64927L2.78891 8.18572C2.95153 8.33571 3.21531 8.33576 3.37803 8.18586C3.37808 8.18581 3.37813 8.18576 3.37819 8.18572L3.56638 8.01224L4.55382 8.92244L4.3113 9.81747C4.09857 10.6084 4.34859 11.4444 4.97094 12.0231L8.50076 15.3705V18.3733C8.50842 19.0618 8.92752 19.6902 9.59056 20.0073C9.94606 20.1817 10.1681 20.5228 10.1676 20.8941V20.974H9.75088C9.52086 20.9738 9.33433 21.1456 9.33418 21.3577C9.33418 21.3578 9.33418 21.3579 9.33418 21.3581V23.2787C9.33402 23.4907 9.52039 23.6626 9.75041 23.6628C9.75057 23.6628 9.75073 23.6628 9.75088 23.6628H17.6683C17.8983 23.6629 18.0849 23.4911 18.085 23.2791C18.085 23.2789 18.085 23.2788 18.085 23.2787V21.3581C18.0852 21.1461 17.8988 20.9741 17.6688 20.974C17.6686 20.974 17.6685 20.974 17.6683 20.974H17.2516V20.588L17.9121 20.0265C18.5441 19.5857 18.9164 18.898 18.9184 18.1674V13.6677C19.4119 13.6131 19.8706 13.4057 20.2194 13.0794L22.4222 10.8745C22.94 10.4007 23.1203 9.69657 22.8869 9.05933C22.8202 8.87409 23.1791 8.26787 23.6068 7.80295C23.6831 7.87276 23.7858 7.91261 23.8933 7.9141H23.8974C24.0071 7.9141 24.1124 7.8742 24.1904 7.80304L25.8763 6.26659C26.0399 6.11756 26.0414 5.87446 25.8797 5.72365ZM3.08357 7.37101L2.00602 6.3777L6.83394 1.92737L7.91154 2.92064L3.08357 7.37101ZM8.53769 14.3034L5.56428 11.4837C5.14596 11.0957 4.9774 10.5347 5.1195 10.0035L5.41942 8.89772C5.4551 8.76688 5.41349 8.62841 5.30993 8.5331L4.15566 7.46911L7.66735 4.23209L8.20615 4.72875C8.35663 4.86737 8.59619 4.87932 8.76204 4.7565L9.10426 4.50256C9.57712 4.3807 10.0846 4.50395 10.4309 4.82478L12.728 6.9422L12.724 6.94494C12.5381 7.10237 12.3996 7.30154 12.322 7.52298C12.0637 7.39396 11.7694 7.33947 11.4771 7.36655C10.7208 7.45749 10.158 8.05589 10.1676 8.75896V12.776C9.33881 12.9337 8.69516 13.5369 8.53769 14.3034ZM17.2516 22.8945H10.1676V21.7422H17.2516V22.8945ZM18.085 18.1674C18.0802 18.6694 17.8186 19.1399 17.3794 19.4368L16.5529 20.1368C16.467 20.2095 16.4181 20.3121 16.4182 20.4196V20.974H11.001V20.8941C11.0019 20.239 10.61 19.637 9.98242 19.3295C9.59139 19.1456 9.3422 18.778 9.33418 18.3734V14.6579C9.33579 14.1712 9.66952 13.7381 10.1676 13.5764V15.9806H11.001V8.75891C10.9882 8.44936 11.2283 8.17976 11.5601 8.13098C11.7369 8.11417 11.9132 8.16718 12.0452 8.27689C12.177 8.3856 12.2519 8.54112 12.2511 8.70412V14.4441H13.0845V7.9359C13.0843 7.61781 13.3638 7.35978 13.7089 7.35954C13.7282 7.35954 13.7474 7.36035 13.7666 7.36194C14.1041 7.41379 14.3473 7.68858 14.3347 8.00374V14.444H15.1681V9.08824C15.1678 8.77014 15.4474 8.51212 15.7925 8.51188C15.8117 8.51188 15.831 8.51269 15.8501 8.51428C16.1876 8.56613 16.4308 8.84092 16.4182 9.15608V14.444H17.2516V11.2716C17.7497 11.4333 18.0834 11.8664 18.085 12.3531V18.1674ZM22.0966 9.30243C22.229 9.66916 22.1219 10.0733 21.8211 10.3426L19.6183 12.5475C19.4278 12.7251 19.1841 12.8461 18.9184 12.8952V12.3532C18.9171 11.4409 18.2209 10.6549 17.2516 10.4713V9.15613C17.2662 8.44211 16.6917 7.83396 15.9225 7.74907C15.6612 7.72881 15.3987 7.77284 15.1619 7.8766C15.1128 7.21199 14.5567 6.67404 13.8389 6.59674C13.8212 6.59535 13.8038 6.59842 13.7861 6.59765L15.4602 4.79775C15.8812 4.41229 16.4898 4.25692 17.066 4.38775L18.2656 4.66422C18.4076 4.69701 18.5577 4.6587 18.6612 4.56329L19.4344 3.85052L23.0249 7.254C22.6403 7.66529 21.8501 8.62111 22.0966 9.30243ZM23.9031 6.9846L19.6098 2.91463L20.5938 1.93745L24.9924 5.992L23.9031 6.9846Z" fill="white"/>
<path d="M25.8797 5.72365C25.8791 5.72312 25.8785 5.72255 25.8779 5.72202L20.8774 1.11267C20.7979 1.0382 20.6884 0.99748 20.5751 1.00012C20.462 1.00199 20.3546 1.04626 20.2776 1.1228L18.7296 2.65925C18.5786 2.80915 18.5815 3.04182 18.7361 3.18851L18.8535 3.29976L18.2388 3.86632L17.2679 3.64277C16.397 3.44629 15.4782 3.68684 14.8494 4.27598L13.0782 6.17873L11.0201 4.28159C10.4333 3.73769 9.56248 3.54808 8.77376 3.79243C8.72667 3.80702 8.68276 3.82911 8.64395 3.85768L8.53082 3.9417L8.25652 3.68891L8.79532 3.19225C8.95805 3.04235 8.9581 2.79921 8.79548 2.64926C8.79543 2.64921 8.79538 2.64916 8.79532 2.64912L7.1285 1.11267C6.96588 0.96267 6.7021 0.962622 6.53943 1.11252C6.53938 1.11257 6.53932 1.11262 6.53927 1.11267L1.12208 6.10613C0.959358 6.25603 0.959306 6.49917 1.12193 6.64912C1.12198 6.64917 1.12203 6.64922 1.12208 6.64927L2.78891 8.18572C2.95153 8.33571 3.21531 8.33576 3.37803 8.18586C3.37808 8.18581 3.37813 8.18576 3.37819 8.18572L3.56638 8.01224L4.55382 8.92244L4.3113 9.81747C4.09857 10.6084 4.34859 11.4444 4.97094 12.0231L8.50076 15.3705V18.3733C8.50842 19.0618 8.92752 19.6902 9.59056 20.0073C9.94606 20.1817 10.1681 20.5228 10.1676 20.8941V20.974H9.75088C9.52086 20.9738 9.33433 21.1456 9.33418 21.3577C9.33418 21.3578 9.33418 21.3579 9.33418 21.3581V23.2787C9.33402 23.4907 9.52039 23.6626 9.75041 23.6628C9.75057 23.6628 9.75073 23.6628 9.75088 23.6628H17.6683C17.8983 23.6629 18.0849 23.4911 18.085 23.2791C18.085 23.2789 18.085 23.2788 18.085 23.2787V21.3581C18.0852 21.1461 17.8988 20.9741 17.6688 20.974C17.6686 20.974 17.6685 20.974 17.6683 20.974H17.2516V20.588L17.9121 20.0265C18.5441 19.5857 18.9164 18.898 18.9184 18.1674V13.6677C19.4119 13.6131 19.8706 13.4057 20.2194 13.0794L22.4222 10.8745C22.94 10.4007 23.1203 9.69657 22.8869 9.05933C22.8202 8.87409 23.1791 8.26787 23.6068 7.80295C23.6831 7.87276 23.7858 7.91261 23.8933 7.9141H23.8974C24.0071 7.9141 24.1124 7.8742 24.1904 7.80304L25.8763 6.26659C26.0399 6.11756 26.0414 5.87446 25.8797 5.72365ZM3.08357 7.37101L2.00602 6.3777L6.83394 1.92737L7.91154 2.92064L3.08357 7.37101ZM8.53769 14.3034L5.56428 11.4837C5.14596 11.0957 4.9774 10.5347 5.1195 10.0035L5.41942 8.89772C5.4551 8.76688 5.41349 8.62841 5.30993 8.5331L4.15566 7.46911L7.66735 4.23209L8.20615 4.72875C8.35663 4.86737 8.59619 4.87932 8.76204 4.7565L9.10426 4.50256C9.57712 4.3807 10.0846 4.50395 10.4309 4.82478L12.728 6.9422L12.724 6.94494C12.5381 7.10237 12.3996 7.30154 12.322 7.52298C12.0637 7.39396 11.7694 7.33947 11.4771 7.36655C10.7208 7.45749 10.158 8.05589 10.1676 8.75896V12.776C9.33881 12.9337 8.69516 13.5369 8.53769 14.3034ZM17.2516 22.8945H10.1676V21.7422H17.2516V22.8945ZM18.085 18.1674C18.0802 18.6694 17.8186 19.1399 17.3794 19.4368L16.5529 20.1368C16.467 20.2095 16.4181 20.3121 16.4182 20.4196V20.974H11.001V20.8941C11.0019 20.239 10.61 19.637 9.98242 19.3295C9.59139 19.1456 9.3422 18.778 9.33418 18.3734V14.6579C9.33579 14.1712 9.66952 13.7381 10.1676 13.5764V15.9806H11.001V8.75891C10.9882 8.44936 11.2283 8.17976 11.5601 8.13098C11.7369 8.11417 11.9132 8.16718 12.0452 8.27689C12.177 8.3856 12.2519 8.54112 12.2511 8.70412V14.4441H13.0845V7.9359C13.0843 7.61781 13.3638 7.35978 13.7089 7.35954C13.7282 7.35954 13.7474 7.36035 13.7666 7.36194C14.1041 7.41379 14.3473 7.68858 14.3347 8.00374V14.444H15.1681V9.08824C15.1678 8.77014 15.4474 8.51212 15.7925 8.51188C15.8117 8.51188 15.831 8.51269 15.8501 8.51428C16.1876 8.56613 16.4308 8.84092 16.4182 9.15608V14.444H17.2516V11.2716C17.7497 11.4333 18.0834 11.8664 18.085 12.3531V18.1674ZM22.0966 9.30243C22.229 9.66916 22.1219 10.0733 21.8211 10.3426L19.6183 12.5475C19.4278 12.7251 19.1841 12.8461 18.9184 12.8952V12.3532C18.9171 11.4409 18.2209 10.6549 17.2516 10.4713V9.15613C17.2662 8.44211 16.6917 7.83396 15.9225 7.74907C15.6612 7.72881 15.3987 7.77284 15.1619 7.8766C15.1128 7.21199 14.5567 6.67404 13.8389 6.59674C13.8212 6.59535 13.8038 6.59842 13.7861 6.59765L15.4602 4.79775C15.8812 4.41229 16.4898 4.25692 17.066 4.38775L18.2656 4.66422C18.4076 4.69701 18.5577 4.6587 18.6612 4.56329L19.4344 3.85052L23.0249 7.254C22.6403 7.66529 21.8501 8.62111 22.0966 9.30243ZM23.9031 6.9846L19.6098 2.91463L20.5938 1.93745L24.9924 5.992L23.9031 6.9846Z" stroke="white" stroke-width="0.3" mask="url(#path-1-outside-1)"/>
</svg>
