<svg viewBox="0 0 26 25" fill="none" xmlns="http://www.w3.org/2000/svg">
<mask id="path-1-outside-1" maskUnits="userSpaceOnUse" x="0" y="0" fill="black">
<rect fill="white"/>
<path fill-rule="evenodd" clip-rule="evenodd" d="M13.4126 1H12.5866V3.0542H13.4126V1ZM15.6564 14.994C17.8253 14.1179 19.231 12.0072 19.1961 9.67899C19.1961 6.47911 16.4168 3.87587 13.0005 3.87587C9.58428 3.87587 6.80494 6.47911 6.80494 9.67899C6.77009 12.0072 8.17571 14.1179 10.3446 14.994L10.3926 15.0199L10.7207 15.5552C10.1351 15.8924 9.93515 16.6378 10.2741 17.2203C10.3186 17.2968 10.3714 17.3684 10.4316 17.4336C9.97238 17.9343 10.0082 18.7104 10.5115 19.1672C10.7402 19.3747 11.0389 19.4891 11.3484 19.4878H14.6527C15.334 19.4908 15.8888 18.9437 15.8918 18.266C15.8931 17.9581 15.7781 17.661 15.5695 17.4336C16.0269 16.9377 15.9935 16.1668 15.4949 15.7119C15.4293 15.6521 15.3574 15.5995 15.2804 15.5552L15.6084 15.0199L15.6564 14.994ZM11.3483 18.6661C11.1202 18.6661 10.9353 18.4822 10.9353 18.2553C10.9353 18.0284 11.1202 17.8444 11.3483 17.8444H14.6526C14.8807 17.8444 15.0657 18.0284 15.0657 18.2553C15.0657 18.4822 14.8807 18.6661 14.6526 18.6661H11.3483ZM14.6526 17.0227H11.3483C11.1202 17.0227 10.9353 16.8388 10.9353 16.6119C10.9353 16.385 11.1202 16.2011 11.3483 16.2011H14.6526C14.8807 16.2011 15.0657 16.385 15.0657 16.6119C15.0657 16.8388 14.8807 17.0227 14.6526 17.0227ZM15.2815 14.2614L15.1163 14.3507C15.0524 14.3854 14.9988 14.4362 14.9608 14.4979L14.4207 15.3794H14.2396V12.2628L16.1838 10.3289L15.5997 9.74796L13.5345 11.8022C13.4571 11.8792 13.4136 11.9836 13.4135 12.0926V15.3793H12.5874V12.0926C12.5874 11.9836 12.5439 11.8792 12.4664 11.8022L10.4012 9.74796L9.81718 10.3289L11.7614 12.2627V15.3793H11.5802L11.0401 14.4979C11.0022 14.4361 10.9485 14.3853 10.8846 14.3506L10.7195 14.2614C10.7062 14.2544 10.6926 14.248 10.6787 14.2423C8.81133 13.4951 7.59968 11.6809 7.63097 9.67899C7.63097 6.93232 10.0396 4.69755 13.0005 4.69755C15.9613 4.69755 18.37 6.93232 18.37 9.67899C18.4013 11.6809 17.1896 13.4951 15.3222 14.2423C15.3083 14.248 15.2947 14.2544 15.2815 14.2614ZM4.51013 3.91942L4.14071 4.65433L6.61879 5.88678L6.98821 5.15187L4.51013 3.91942ZM18.9119 4.94916L21.5402 4.07719L21.8015 4.85664L19.1733 5.72861L18.9119 4.94916ZM5.15197 9.21676H2.67374V10.0384H5.15197V9.21676ZM20.8477 9.21676H23.3259V10.0384H20.8477V9.21676ZM6.61879 14.1898L4.14071 15.4223L4.51013 16.1572L6.98821 14.9247L6.61879 14.1898ZM19.0108 14.9262L19.3802 14.1913L21.8583 15.4237L21.4889 16.1586L19.0108 14.9262ZM24.9783 19.4878V20.3095C18.9274 20.3095 14.7021 21.82 14.6546 23.1853H24.9783V24.007H1.02206V23.1853H11.3458C11.2983 21.82 7.07303 20.3095 1.02206 20.3095V19.4878C6.41072 19.4878 12.137 20.7835 12.1739 23.1853H13.8265C13.8634 20.7835 19.5897 19.4878 24.9783 19.4878ZM1.04322 21.5431L1 22.3636L8.84901 22.7771L8.89224 21.9565L1.04322 21.5431ZM17.1092 21.9544L24.9582 21.5402L25.0015 22.3607L17.1525 22.7749L17.1092 21.9544Z"/>
</mask>
<path fill-rule="evenodd" clip-rule="evenodd" d="M13.4126 1H12.5866V3.0542H13.4126V1ZM15.6564 14.994C17.8253 14.1179 19.231 12.0072 19.1961 9.67899C19.1961 6.47911 16.4168 3.87587 13.0005 3.87587C9.58428 3.87587 6.80494 6.47911 6.80494 9.67899C6.77009 12.0072 8.17571 14.1179 10.3446 14.994L10.3926 15.0199L10.7207 15.5552C10.1351 15.8924 9.93515 16.6378 10.2741 17.2203C10.3186 17.2968 10.3714 17.3684 10.4316 17.4336C9.97238 17.9343 10.0082 18.7104 10.5115 19.1672C10.7402 19.3747 11.0389 19.4891 11.3484 19.4878H14.6527C15.334 19.4908 15.8888 18.9437 15.8918 18.266C15.8931 17.9581 15.7781 17.661 15.5695 17.4336C16.0269 16.9377 15.9935 16.1668 15.4949 15.7119C15.4293 15.6521 15.3574 15.5995 15.2804 15.5552L15.6084 15.0199L15.6564 14.994ZM11.3483 18.6661C11.1202 18.6661 10.9353 18.4822 10.9353 18.2553C10.9353 18.0284 11.1202 17.8444 11.3483 17.8444H14.6526C14.8807 17.8444 15.0657 18.0284 15.0657 18.2553C15.0657 18.4822 14.8807 18.6661 14.6526 18.6661H11.3483ZM14.6526 17.0227H11.3483C11.1202 17.0227 10.9353 16.8388 10.9353 16.6119C10.9353 16.385 11.1202 16.2011 11.3483 16.2011H14.6526C14.8807 16.2011 15.0657 16.385 15.0657 16.6119C15.0657 16.8388 14.8807 17.0227 14.6526 17.0227ZM15.2815 14.2614L15.1163 14.3507C15.0524 14.3854 14.9988 14.4362 14.9608 14.4979L14.4207 15.3794H14.2396V12.2628L16.1838 10.3289L15.5997 9.74796L13.5345 11.8022C13.4571 11.8792 13.4136 11.9836 13.4135 12.0926V15.3793H12.5874V12.0926C12.5874 11.9836 12.5439 11.8792 12.4664 11.8022L10.4012 9.74796L9.81718 10.3289L11.7614 12.2627V15.3793H11.5802L11.0401 14.4979C11.0022 14.4361 10.9485 14.3853 10.8846 14.3506L10.7195 14.2614C10.7062 14.2544 10.6926 14.248 10.6787 14.2423C8.81133 13.4951 7.59968 11.6809 7.63097 9.67899C7.63097 6.93232 10.0396 4.69755 13.0005 4.69755C15.9613 4.69755 18.37 6.93232 18.37 9.67899C18.4013 11.6809 17.1896 13.4951 15.3222 14.2423C15.3083 14.248 15.2947 14.2544 15.2815 14.2614ZM4.51013 3.91942L4.14071 4.65433L6.61879 5.88678L6.98821 5.15187L4.51013 3.91942ZM18.9119 4.94916L21.5402 4.07719L21.8015 4.85664L19.1733 5.72861L18.9119 4.94916ZM5.15197 9.21676H2.67374V10.0384H5.15197V9.21676ZM20.8477 9.21676H23.3259V10.0384H20.8477V9.21676ZM6.61879 14.1898L4.14071 15.4223L4.51013 16.1572L6.98821 14.9247L6.61879 14.1898ZM19.0108 14.9262L19.3802 14.1913L21.8583 15.4237L21.4889 16.1586L19.0108 14.9262ZM24.9783 19.4878V20.3095C18.9274 20.3095 14.7021 21.82 14.6546 23.1853H24.9783V24.007H1.02206V23.1853H11.3458C11.2983 21.82 7.07303 20.3095 1.02206 20.3095V19.4878C6.41072 19.4878 12.137 20.7835 12.1739 23.1853H13.8265C13.8634 20.7835 19.5897 19.4878 24.9783 19.4878ZM1.04322 21.5431L1 22.3636L8.84901 22.7771L8.89224 21.9565L1.04322 21.5431ZM17.1092 21.9544L24.9582 21.5402L25.0015 22.3607L17.1525 22.7749L17.1092 21.9544Z" fill="white"/>
<path d="M12.5866 1V0.9H12.4866V1H12.5866ZM13.4126 1H13.5126V0.9H13.4126V1ZM12.5866 3.0542H12.4866V3.1542H12.5866V3.0542ZM13.4126 3.0542V3.1542H13.5126V3.0542H13.4126ZM19.1961 9.67899H19.0961L19.0961 9.68048L19.1961 9.67899ZM15.6564 14.994L15.6187 14.9007L15.609 14.906L15.6564 14.994ZM6.80494 9.67899L6.90494 9.68048V9.67899H6.80494ZM10.3446 14.994L10.3924 14.9055L10.3821 14.9013L10.3446 14.994ZM10.3926 15.0199L10.4779 14.9677L10.4638 14.9447L10.4401 14.9319L10.3926 15.0199ZM10.7207 15.5552L10.7705 15.6419L10.8596 15.5906L10.8059 15.503L10.7207 15.5552ZM10.2741 17.2203L10.1876 17.2706L10.1876 17.2706L10.2741 17.2203ZM10.4316 17.4336L10.5053 17.5012L10.5674 17.4334L10.5051 17.3658L10.4316 17.4336ZM10.5115 19.1672L10.4443 19.2413L10.4443 19.2413L10.5115 19.1672ZM11.3484 19.4878V19.3878L11.3479 19.3878L11.3484 19.4878ZM14.6527 19.4878L14.6531 19.3878H14.6527V19.4878ZM15.8918 18.266L15.9918 18.2664V18.2664L15.8918 18.266ZM15.5695 17.4336L15.496 17.3658L15.4337 17.4334L15.4958 17.5012L15.5695 17.4336ZM15.4949 15.7119L15.4275 15.7858L15.4275 15.7858L15.4949 15.7119ZM15.2804 15.5552L15.1951 15.503L15.1414 15.5906L15.2305 15.6419L15.2804 15.5552ZM15.6084 15.0199L15.561 14.9319L15.5372 14.9447L15.5231 14.9677L15.6084 15.0199ZM15.1163 14.3507L15.0688 14.2627L15.0686 14.2628L15.1163 14.3507ZM15.2815 14.2614L15.2345 14.1732L15.2339 14.1735L15.2815 14.2614ZM14.9608 14.4979L14.8756 14.4456L14.8755 14.4457L14.9608 14.4979ZM14.4207 15.3794V15.4794H14.4767L14.506 15.4316L14.4207 15.3794ZM14.2396 15.3794H14.1396V15.4794H14.2396V15.3794ZM14.2396 12.2628L14.1691 12.1919L14.1396 12.2212V12.2628H14.2396ZM16.1838 10.3289L16.2543 10.3998L16.3256 10.3289L16.2543 10.258L16.1838 10.3289ZM15.5997 9.74796L15.6703 9.67706L15.5997 9.60691L15.5292 9.67706L15.5997 9.74796ZM13.5345 11.8022L13.464 11.7313H13.464L13.5345 11.8022ZM13.4135 12.0926L13.3135 12.0926V12.0926H13.4135ZM13.4135 15.3793V15.4793H13.5135V15.3793H13.4135ZM12.5874 15.3793H12.4874V15.4793H12.5874V15.3793ZM12.5874 12.0926H12.6874V12.0926L12.5874 12.0926ZM12.4664 11.8022L12.5369 11.7313H12.5369L12.4664 11.8022ZM10.4012 9.74796L10.4717 9.67706L10.4012 9.60691L10.3307 9.67706L10.4012 9.74796ZM9.81718 10.3289L9.74666 10.258L9.67538 10.3289L9.74666 10.3998L9.81718 10.3289ZM11.7614 12.2627H11.8614V12.2211L11.8319 12.1918L11.7614 12.2627ZM11.7614 15.3793V15.4793H11.8614V15.3793H11.7614ZM11.5802 15.3793L11.495 15.4316L11.5242 15.4793H11.5802V15.3793ZM11.0401 14.4979L11.1254 14.4456L11.1253 14.4455L11.0401 14.4979ZM10.8846 14.3506L10.9323 14.2627L10.9322 14.2627L10.8846 14.3506ZM10.7195 14.2614L10.767 14.1734L10.7663 14.173L10.7195 14.2614ZM10.6787 14.2423L10.7164 14.1497L10.7159 14.1495L10.6787 14.2423ZM7.63097 9.67899L7.73097 9.68055V9.67899H7.63097ZM18.37 9.67899H18.27L18.27 9.68055L18.37 9.67899ZM15.3222 14.2423L15.2851 14.1495L15.2842 14.1498L15.3222 14.2423ZM4.14071 4.65433L4.05136 4.60942L4.00626 4.69915L4.09618 4.74387L4.14071 4.65433ZM4.51013 3.91942L4.55466 3.82988L4.46551 3.78554L4.42078 3.87451L4.51013 3.91942ZM6.61879 5.88678L6.57426 5.97631L6.66342 6.02065L6.70814 5.93169L6.61879 5.88678ZM6.98821 5.15187L7.07756 5.19678L7.12267 5.10705L7.03274 5.06233L6.98821 5.15187ZM21.5402 4.07719L21.635 4.0454L21.6033 3.95089L21.5087 3.98228L21.5402 4.07719ZM18.9119 4.94916L18.8804 4.85425L18.7852 4.88584L18.8171 4.98096L18.9119 4.94916ZM21.8015 4.85664L21.833 4.95155L21.9282 4.91996L21.8963 4.82484L21.8015 4.85664ZM19.1733 5.72861L19.0785 5.7604L19.1102 5.85491L19.2048 5.82352L19.1733 5.72861ZM2.67374 9.21676V9.11676H2.57374V9.21676H2.67374ZM5.15197 9.21676H5.25197V9.11676H5.15197V9.21676ZM2.67374 10.0384H2.57374V10.1384H2.67374V10.0384ZM5.15197 10.0384V10.1384H5.25197V10.0384H5.15197ZM23.3259 9.21676H23.4259V9.11676H23.3259V9.21676ZM20.8477 9.21676V9.11676H20.7477V9.21676H20.8477ZM23.3259 10.0384V10.1384H23.4259V10.0384H23.3259ZM20.8477 10.0384H20.7477V10.1384H20.8477V10.0384ZM4.14071 15.4223L4.09618 15.3327L4.00626 15.3774L4.05136 15.4672L4.14071 15.4223ZM6.61879 14.1898L6.70814 14.1449L6.66342 14.0559L6.57426 14.1003L6.61879 14.1898ZM4.51013 16.1572L4.42078 16.2021L4.46551 16.291L4.55466 16.2467L4.51013 16.1572ZM6.98821 14.9247L7.03274 15.0143L7.12266 14.9695L7.07756 14.8798L6.98821 14.9247ZM19.3802 14.1913L19.4248 14.1017L19.3356 14.0574L19.2909 14.1464L19.3802 14.1913ZM19.0108 14.9262L18.9215 14.8813L18.8764 14.971L18.9663 15.0157L19.0108 14.9262ZM21.8583 15.4237L21.9477 15.4686L21.9928 15.3789L21.9029 15.3342L21.8583 15.4237ZM21.4889 16.1586L21.4444 16.2482L21.5335 16.2925L21.5783 16.2035L21.4889 16.1586ZM24.9783 20.3095V20.4095H25.0783V20.3095H24.9783ZM24.9783 19.4878H25.0783V19.3878H24.9783V19.4878ZM14.6546 23.1853L14.5546 23.1819L14.551 23.2853H14.6546V23.1853ZM24.9783 23.1853H25.0783V23.0853H24.9783V23.1853ZM24.9783 24.007V24.107H25.0783V24.007H24.9783ZM1.02206 24.007H0.922059V24.107H1.02206V24.007ZM1.02206 23.1853V23.0853H0.922059V23.1853H1.02206ZM11.3458 23.1853V23.2853H11.4494L11.4458 23.1819L11.3458 23.1853ZM1.02206 20.3095H0.922059V20.4095H1.02206V20.3095ZM1.02206 19.4878V19.3878H0.922059V19.4878H1.02206ZM12.1739 23.1853L12.0739 23.1869L12.0754 23.2853H12.1739V23.1853ZM13.8265 23.1853V23.2853H13.9249L13.9265 23.1869L13.8265 23.1853ZM1 22.3636L0.900138 22.3584L0.894878 22.4582L0.99474 22.4635L1 22.3636ZM1.04322 21.5431L1.04848 21.4432L0.94862 21.438L0.94336 21.5378L1.04322 21.5431ZM8.84901 22.7771L8.84375 22.8769L8.94362 22.8822L8.94888 22.7823L8.84901 22.7771ZM8.89224 21.9565L8.9921 21.9618L8.99736 21.8619L8.8975 21.8567L8.89224 21.9565ZM24.9582 21.5402L25.0581 21.5349L25.0528 21.435L24.953 21.4403L24.9582 21.5402ZM17.1092 21.9544L17.104 21.8545L17.0041 21.8598L17.0094 21.9597L17.1092 21.9544ZM25.0015 22.3607L25.0068 22.4606L25.1067 22.4553L25.1014 22.3554L25.0015 22.3607ZM17.1525 22.7749L17.0527 22.7802L17.0579 22.8801L17.1578 22.8748L17.1525 22.7749ZM12.5866 1.1H13.4126V0.9H12.5866V1.1ZM12.6866 3.0542V1H12.4866V3.0542H12.6866ZM13.4126 2.9542H12.5866V3.1542H13.4126V2.9542ZM13.3126 1V3.0542H13.5126V1H13.3126ZM19.0961 9.68048C19.1304 11.9671 17.7498 14.0405 15.619 14.9013L15.6939 15.0867C17.9008 14.1952 19.3316 12.0472 19.2961 9.67749L19.0961 9.68048ZM13.0005 3.97587C16.3678 3.97587 19.0961 6.5404 19.0961 9.67899H19.2961C19.2961 6.41781 16.4657 3.77587 13.0005 3.77587V3.97587ZM6.90494 9.67899C6.90494 6.5404 9.63324 3.97587 13.0005 3.97587V3.77587C9.53532 3.77587 6.70494 6.41781 6.70494 9.67899H6.90494ZM10.3821 14.9013C8.25124 14.0405 6.8707 11.9671 6.90493 9.68048L6.70495 9.67749C6.66948 12.0472 8.10019 14.1952 10.3072 15.0867L10.3821 14.9013ZM10.4401 14.9319L10.3921 14.906L10.2972 15.082L10.3452 15.1079L10.4401 14.9319ZM10.8059 15.503L10.4779 14.9677L10.3074 15.0721L10.6354 15.6075L10.8059 15.503ZM10.3605 17.17C10.0496 16.6357 10.2328 15.9515 10.7705 15.6419L10.6708 15.4686C10.0374 15.8332 9.82073 16.64 10.1876 17.2706L10.3605 17.17ZM10.5051 17.3658C10.4499 17.3059 10.4014 17.2402 10.3605 17.17L10.1876 17.2706C10.2358 17.3534 10.293 17.4308 10.3581 17.5014L10.5051 17.3658ZM10.5787 19.0932C10.1164 18.6736 10.0836 17.961 10.5053 17.5012L10.3579 17.366C9.86118 17.9076 9.89994 18.7473 10.4443 19.2413L10.5787 19.0932ZM11.3479 19.3878C11.0634 19.389 10.7888 19.2838 10.5787 19.0932L10.4443 19.2413C10.6915 19.4656 11.0144 19.5892 11.3488 19.5878L11.3479 19.3878ZM14.6527 19.3878H11.3484V19.5878H14.6527V19.3878ZM15.7918 18.2656C15.7891 18.8876 15.2798 19.3905 14.6531 19.3878L14.6522 19.5878C15.3883 19.591 15.9886 18.9999 15.9918 18.2664L15.7918 18.2656ZM15.4958 17.5012C15.6874 17.7101 15.793 17.9829 15.7918 18.2656L15.9918 18.2664C15.9932 17.9333 15.8688 17.6119 15.6432 17.366L15.4958 17.5012ZM15.4275 15.7858C15.8851 16.2034 15.9158 16.9106 15.496 17.3658L15.643 17.5014C16.138 16.9647 16.1018 16.1303 15.5623 15.638L15.4275 15.7858ZM15.2305 15.6419C15.3013 15.6826 15.3672 15.7308 15.4275 15.7858L15.5623 15.638C15.4914 15.5733 15.4136 15.5165 15.3303 15.4686L15.2305 15.6419ZM15.5231 14.9677L15.1951 15.503L15.3657 15.6075L15.6937 15.0721L15.5231 14.9677ZM15.609 14.906L15.561 14.9319L15.6559 15.1079L15.7039 15.082L15.609 14.906ZM10.8353 18.2553C10.8353 18.5379 11.0655 18.7661 11.3483 18.7661V18.5661C11.1749 18.5661 11.0353 18.4264 11.0353 18.2553H10.8353ZM11.3483 17.7444C11.0655 17.7444 10.8353 17.9727 10.8353 18.2553H11.0353C11.0353 18.0841 11.1749 17.9444 11.3483 17.9444V17.7444ZM14.6526 17.7444H11.3483V17.9444H14.6526V17.7444ZM15.1657 18.2553C15.1657 17.9727 14.9355 17.7444 14.6526 17.7444V17.9444C14.826 17.9444 14.9657 18.0841 14.9657 18.2553H15.1657ZM14.6526 18.7661C14.9355 18.7661 15.1657 18.5379 15.1657 18.2553H14.9657C14.9657 18.4264 14.826 18.5661 14.6526 18.5661V18.7661ZM11.3483 18.7661H14.6526V18.5661H11.3483V18.7661ZM11.3483 17.1227H14.6526V16.9227H11.3483V17.1227ZM10.8353 16.6119C10.8353 16.8945 11.0655 17.1227 11.3483 17.1227V16.9227C11.1749 16.9227 11.0353 16.7831 11.0353 16.6119H10.8353ZM11.3483 16.1011C11.0655 16.1011 10.8353 16.3293 10.8353 16.6119H11.0353C11.0353 16.4408 11.1749 16.3011 11.3483 16.3011V16.1011ZM14.6526 16.1011H11.3483V16.3011H14.6526V16.1011ZM15.1657 16.6119C15.1657 16.3293 14.9355 16.1011 14.6526 16.1011V16.3011C14.826 16.3011 14.9657 16.4408 14.9657 16.6119H15.1657ZM14.6526 17.1227C14.9355 17.1227 15.1657 16.8945 15.1657 16.6119H14.9657C14.9657 16.7831 14.826 16.9227 14.6526 16.9227V17.1227ZM15.1639 14.4387L15.329 14.3494L15.2339 14.1735L15.0688 14.2627L15.1639 14.4387ZM15.046 14.5503C15.0748 14.5035 15.1154 14.4649 15.164 14.4386L15.0686 14.2628C14.9894 14.3058 14.9228 14.3688 14.8756 14.4456L15.046 14.5503ZM14.506 15.4316L15.0461 14.5502L14.8755 14.4457L14.3354 15.3271L14.506 15.4316ZM14.2396 15.4794H14.4207V15.2794H14.2396V15.4794ZM14.1396 12.2628V15.3794H14.3396V12.2628H14.1396ZM16.1132 10.258L14.1691 12.1919L14.3101 12.3337L16.2543 10.3998L16.1132 10.258ZM15.5292 9.81885L16.1132 10.3998L16.2543 10.258L15.6703 9.67706L15.5292 9.81885ZM13.6051 11.8731L15.6702 9.81885L15.5292 9.67706L13.464 11.7313L13.6051 11.8731ZM13.5135 12.0927C13.5136 12.0104 13.5464 11.9314 13.6051 11.8731L13.464 11.7313C13.3678 11.827 13.3136 11.9569 13.3135 12.0926L13.5135 12.0927ZM13.5135 15.3793V12.0926H13.3135V15.3793H13.5135ZM12.5874 15.4793H13.4135V15.2793H12.5874V15.4793ZM12.4874 12.0926V15.3793H12.6874V12.0926H12.4874ZM12.3959 11.8731C12.4545 11.9314 12.4874 12.0104 12.4874 12.0927L12.6874 12.0926C12.6874 11.9569 12.6332 11.827 12.5369 11.7313L12.3959 11.8731ZM10.3307 9.81885L12.3959 11.8731L12.5369 11.7313L10.4717 9.67706L10.3307 9.81885ZM9.8877 10.3998L10.4717 9.81885L10.3307 9.67706L9.74666 10.258L9.8877 10.3998ZM11.8319 12.1918L9.8877 10.258L9.74666 10.3998L11.6908 12.3336L11.8319 12.1918ZM11.8614 15.3793V12.2627H11.6614V15.3793H11.8614ZM11.5802 15.4793H11.7614V15.2793H11.5802V15.4793ZM10.9549 14.5501L11.495 15.4316L11.6655 15.3271L11.1254 14.4456L10.9549 14.5501ZM10.837 14.4386C10.8855 14.4649 10.9262 14.5034 10.9549 14.5502L11.1253 14.4455C11.0782 14.3688 11.0116 14.3057 10.9323 14.2627L10.837 14.4386ZM10.6719 14.3494L10.8371 14.4386L10.9322 14.2627L10.767 14.1734L10.6719 14.3494ZM10.6411 14.335C10.6517 14.3393 10.6622 14.3442 10.6726 14.3497L10.7663 14.173C10.7502 14.1645 10.7335 14.1567 10.7164 14.1497L10.6411 14.335ZM7.53098 9.67742C7.49904 11.721 8.73592 13.5726 10.6416 14.3352L10.7159 14.1495C8.88673 13.4175 7.70032 11.6407 7.73095 9.68055L7.53098 9.67742ZM13.0005 4.59755C9.99157 4.59755 7.53097 6.87016 7.53097 9.67899H7.73097C7.73097 6.99447 10.0876 4.79755 13.0005 4.79755V4.59755ZM18.47 9.67899C18.47 6.87016 16.0094 4.59755 13.0005 4.59755V4.79755C15.9133 4.79755 18.27 6.99447 18.27 9.67899H18.47ZM15.3594 14.3352C17.265 13.5726 18.5019 11.721 18.47 9.67742L18.27 9.68055C18.3006 11.6407 17.1142 13.4175 15.2851 14.1495L15.3594 14.3352ZM15.3285 14.3497C15.3386 14.3443 15.3492 14.3393 15.3602 14.3349L15.2842 14.1498C15.2674 14.1567 15.2508 14.1645 15.2345 14.1732L15.3285 14.3497ZM4.23006 4.69924L4.59948 3.96433L4.42078 3.87451L4.05136 4.60942L4.23006 4.69924ZM6.66332 5.79724L4.18524 4.56479L4.09618 4.74387L6.57426 5.97631L6.66332 5.79724ZM6.89887 5.10695L6.52945 5.84186L6.70814 5.93169L7.07756 5.19678L6.89887 5.10695ZM4.4656 4.00896L6.94368 5.2414L7.03274 5.06233L4.55466 3.82988L4.4656 4.00896ZM21.5087 3.98228L18.8804 4.85425L18.9434 5.04408L21.5716 4.1721L21.5087 3.98228ZM21.8963 4.82484L21.635 4.0454L21.4453 4.10898L21.7067 4.88843L21.8963 4.82484ZM19.2048 5.82352L21.833 4.95155L21.77 4.76172L19.1418 5.6337L19.2048 5.82352ZM18.8171 4.98096L19.0785 5.7604L19.2681 5.69682L19.0067 4.91737L18.8171 4.98096ZM2.67374 9.31676H5.15197V9.11676H2.67374V9.31676ZM2.77374 10.0384V9.21676H2.57374V10.0384H2.77374ZM5.15197 9.93844H2.67374V10.1384H5.15197V9.93844ZM5.05197 9.21676V10.0384H5.25197V9.21676H5.05197ZM23.3259 9.11676H20.8477V9.31676H23.3259V9.11676ZM23.4259 10.0384V9.21676H23.2259V10.0384H23.4259ZM20.8477 10.1384H23.3259V9.93844H20.8477V10.1384ZM20.7477 9.21676V10.0384H20.9477V9.21676H20.7477ZM4.18524 15.5118L6.66332 14.2793L6.57426 14.1003L4.09618 15.3327L4.18524 15.5118ZM4.59948 16.1123L4.23006 15.3773L4.05136 15.4672L4.42078 16.2021L4.59948 16.1123ZM6.94368 14.8352L4.4656 16.0676L4.55466 16.2467L7.03274 15.0143L6.94368 14.8352ZM6.52944 14.2347L6.89887 14.9696L7.07756 14.8798L6.70814 14.1449L6.52944 14.2347ZM19.2909 14.1464L18.9215 14.8813L19.1002 14.9711L19.4696 14.2362L19.2909 14.1464ZM21.9029 15.3342L19.4248 14.1017L19.3357 14.2808L21.8138 15.5133L21.9029 15.3342ZM21.5783 16.2035L21.9477 15.4686L21.769 15.3788L21.3996 16.1137L21.5783 16.2035ZM18.9663 15.0157L21.4444 16.2482L21.5334 16.0691L19.0554 14.8366L18.9663 15.0157ZM25.0783 20.3095V19.4878H24.8783V20.3095H25.0783ZM14.7545 23.1888C14.7646 22.8983 15.001 22.5727 15.4925 22.243C15.9784 21.9171 16.6898 21.6038 17.594 21.3312C19.4013 20.7863 21.9603 20.4095 24.9783 20.4095V20.2095C21.9454 20.2095 19.3663 20.5879 17.5363 21.1397C16.6219 21.4154 15.8898 21.7357 15.3811 22.0769C14.8779 22.4145 14.5683 22.7897 14.5546 23.1819L14.7545 23.1888ZM24.9783 23.0853H14.6546V23.2853H24.9783V23.0853ZM25.0783 24.007V23.1853H24.8783V24.007H25.0783ZM1.02206 24.107H24.9783V23.907H1.02206V24.107ZM0.922059 23.1853V24.007H1.12206V23.1853H0.922059ZM11.3458 23.0853H1.02206V23.2853H11.3458V23.0853ZM1.02206 20.4095C4.04012 20.4095 6.59912 20.7863 8.40637 21.3312C9.31058 21.6038 10.0219 21.9171 10.5079 22.243C10.9994 22.5727 11.2358 22.8983 11.2459 23.1888L11.4458 23.1819C11.4321 22.7897 11.1225 22.4145 10.6193 22.0769C10.1106 21.7357 9.37853 21.4154 8.4641 21.1397C6.63409 20.5879 4.05497 20.2095 1.02206 20.2095V20.4095ZM0.922059 19.4878V20.3095H1.12206V19.4878H0.922059ZM12.2739 23.1838C12.264 22.5393 11.8718 21.9823 11.2328 21.5137C10.5934 21.0448 9.69346 20.6536 8.63326 20.34C6.51169 19.7123 3.72286 19.3878 1.02206 19.3878V19.5878C3.70992 19.5878 6.47855 19.9111 8.57652 20.5318C9.62608 20.8423 10.5014 21.2253 11.1145 21.6749C11.7279 22.1248 12.0654 22.6305 12.0739 23.1869L12.2739 23.1838ZM13.8265 23.0853H12.1739V23.2853H13.8265V23.0853ZM24.9783 19.3878C22.2775 19.3878 19.4887 19.7123 17.3671 20.34C16.3069 20.6536 15.407 21.0448 14.7676 21.5137C14.1286 21.9823 13.7364 22.5393 13.7265 23.1838L13.9265 23.1869C13.935 22.6305 14.2724 22.1248 14.8859 21.6749C15.499 21.2253 16.3743 20.8423 17.4239 20.5318C19.5218 19.9111 22.2905 19.5878 24.9783 19.5878V19.3878ZM1.09986 22.3689L1.14308 21.5484L0.94336 21.5378L0.900138 22.3584L1.09986 22.3689ZM8.85427 22.6772L1.00526 22.2638L0.99474 22.4635L8.84375 22.8769L8.85427 22.6772ZM8.79237 21.9513L8.74915 22.7718L8.94888 22.7823L8.9921 21.9618L8.79237 21.9513ZM1.03796 21.643L8.88698 22.0564L8.8975 21.8567L1.04848 21.4432L1.03796 21.643ZM24.953 21.4403L17.104 21.8545L17.1145 22.0542L24.9635 21.64L24.953 21.4403ZM25.1014 22.3554L25.0581 21.5349L24.8584 21.5454L24.9017 22.366L25.1014 22.3554ZM17.1578 22.8748L25.0068 22.4606L24.9963 22.2608L17.1473 22.6751L17.1578 22.8748ZM17.0094 21.9597L17.0527 22.7802L17.2524 22.7697L17.2091 21.9491L17.0094 21.9597Z" fill="white" mask="url(#path-1-outside-1)"/>
</svg>
