<svg viewBox="0 0 18 12" fill="none" xmlns="http://www.w3.org/2000/svg">
<path fill-rule="evenodd" clip-rule="evenodd" d="M6.98565 10.5371V11.25H6.21463V10.5371H5.05422C4.41202 10.5371 3.86803 9.89828 3.86803 9.10889V7.14111C3.86803 6.3507 4.41298 5.71289 5.05422 5.71289H6.21463V4.76074H2.70762C2.06777 4.76074 1.54721 4.12004 1.54721 3.33252V2.85645H1.16041C0.520559 2.85645 0 2.21574 0 1.42822C0 0.640701 0.520559 0 1.16041 0H2.70762C3.34747 0 3.86803 0.640701 3.86803 1.42822C3.86803 2.21574 3.34747 2.85645 2.70762 2.85645H2.31824V3.33252C2.31824 3.59503 2.49433 3.80859 2.70762 3.80859H6.21465V2.85645H5.82785C5.188 2.85645 4.66744 2.21574 4.66744 1.42822C4.66744 0.640701 5.188 0 5.82785 0H7.37506C8.01488 0 8.53544 0.640701 8.53544 1.42822C8.53544 2.21574 8.01488 2.85645 7.37504 2.85645H6.98565V3.80859H9.14062H10.785V2.85645H10.3982C9.75831 2.85645 9.23776 2.21574 9.23776 1.42822C9.23776 0.640701 9.75831 0 10.3982 0H11.9454C12.5852 0 13.1058 0.640701 13.1058 1.42822C13.1058 2.21574 12.5852 2.85645 11.9453 2.85645H11.556V3.80859H14.6249H15.2924C15.5057 3.80859 15.6792 3.59503 15.6792 3.33252V2.85645H15.2924C14.6525 2.85645 14.132 2.21574 14.132 1.42822C14.132 0.640701 14.6525 0 15.2924 0H16.8396C17.4794 0 18 0.640701 18 1.42822C18 2.21574 17.4794 2.85645 16.8396 2.85645H16.4528V3.33252C16.4528 4.12004 15.9322 4.76074 15.2924 4.76074H6.98565V5.71289H8.14864C8.79078 5.71289 9.33484 6.35166 9.33484 7.14111V9.10889C9.33484 9.8993 8.78991 10.5371 8.14864 10.5371H6.98565ZM15.2924 1.9043C15.0791 1.9043 14.9056 1.69073 14.9056 1.42822C14.9056 1.16572 15.0791 0.952148 15.2924 0.952148H16.8396C17.0529 0.952148 17.2264 1.16572 17.2264 1.42822C17.2264 1.69073 17.0529 1.9043 16.8396 1.9043H15.2924ZM1.16041 1.9043C0.947125 1.9043 0.773605 1.69073 0.773605 1.42822C0.773605 1.16572 0.947125 0.952148 1.16041 0.952148H2.70762C2.9209 0.952148 3.09442 1.16572 3.09442 1.42822C3.09442 1.69073 2.9209 1.9043 2.70762 1.9043H1.16041ZM5.82783 1.9043C5.61454 1.9043 5.44102 1.69073 5.44102 1.42822C5.44102 1.16572 5.61454 0.952148 5.82783 0.952148H7.37504C7.58832 0.952148 7.76184 1.16572 7.76184 1.42822C7.76184 1.69073 7.58832 1.9043 7.37506 1.9043H5.82783ZM5.05422 9.58496C4.83444 9.58496 4.64163 9.36251 4.64163 9.10889V7.14111C4.64163 6.88749 4.83444 6.66504 5.05422 6.66504H8.14864C8.36842 6.66504 8.56123 6.88749 8.56123 7.14111V9.10889C8.56123 9.36251 8.36842 9.58496 8.14864 9.58496H5.05422ZM10.0113 1.42822C10.0113 1.69073 10.1849 1.9043 10.3981 1.9043H11.9454C12.1586 1.9043 12.3321 1.69073 12.3321 1.42822C12.3321 1.16572 12.1586 0.952148 11.9453 0.952148H10.3981C10.1849 0.952148 10.0113 1.16572 10.0113 1.42822Z" fill="white"/>
</svg>
