<svg viewBox="0 0 13 13" fill="none" xmlns="http://www.w3.org/2000/svg">
<path d="M12.4923 0H0.50784C0.227338 0 0 0.227326 0 0.507814C0 1.92196 0.606234 3.27203 1.66327 4.21158L3.88735 6.18828C4.27299 6.53106 4.49418 7.0236 4.49418 7.53964V12.4916C4.49418 12.8963 4.94648 13.1389 5.28362 12.914L8.27977 10.9168C8.42101 10.8226 8.50592 10.6641 8.50592 10.4943V7.53964C8.50592 7.0236 8.72711 6.53106 9.11275 6.18828L11.3367 4.21158C12.3938 3.27203 13 1.92196 13 0.507814C13 0.227326 12.7727 0 12.4923 0ZM10.662 3.45244L8.43797 5.42924C7.83571 5.96463 7.49024 6.73379 7.49024 7.53955V10.2225L5.50976 11.5427V7.53964C5.50976 6.73379 5.16429 5.96463 4.56203 5.42924L2.33805 3.45254C1.62529 2.81886 1.17031 1.95062 1.04851 1.01553H11.9515C11.8297 1.95062 11.3748 2.81886 10.662 3.45244Z" fill="white"/>
</svg>
