<svg viewBox="0 0 13 13" fill="none" xmlns="http://www.w3.org/2000/svg">
<path d="M11.8574 3.80859C11.483 3.80859 10.3846 3.80859 9.92773 3.80859V3.42773C9.92773 1.53768 8.39005 0 6.5 0C4.60995 0 3.07227 1.53768 3.07227 3.42773V3.80859C2.61158 3.80859 1.51646 3.80859 1.14258 3.80859C0.512561 3.80859 0 4.32115 0 4.95117V6.09375C0 6.09378 0 6.0938 0 6.09385V6.09388V11.8574C0 12.4874 0.512561 13 1.14258 13C1.23891 13 11.7622 13 11.8574 13C12.4874 13 13 12.4874 13 11.8574V6.09388V6.09385C13 6.09383 13 6.09378 13 6.09375V4.95117C13 4.32115 12.4874 3.80859 11.8574 3.80859ZM1.52344 12.2383H1.14258C0.932572 12.2383 0.761719 12.0674 0.761719 11.8574V7.79487C0.980561 7.99162 1.2381 8.14742 1.52344 8.2484V12.2383ZM1.52344 7.41292C1.06382 7.14622 0.761719 6.64777 0.761719 6.09375V4.95117C0.761719 4.74117 0.932572 4.57031 1.14258 4.57031H1.52344V7.41292ZM3.07227 12.2383H2.28516C2.28516 11.9634 2.28516 4.82041 2.28516 4.57031H3.07227V12.2383ZM9.16602 12.2383H3.83398V8.37891H5.35742V8.75977C5.35742 9.38978 5.86998 9.90234 6.5 9.90234C7.13002 9.90234 7.64258 9.38978 7.64258 8.75977V8.37891H9.16602V12.2383ZM6.11914 8.75977V8.37891H6.88086V8.75977C6.88086 8.96977 6.71001 9.14062 6.5 9.14062C6.28999 9.14062 6.11914 8.96977 6.11914 8.75977ZM9.16602 7.61719C8.86834 7.61719 4.11376 7.61719 3.83398 7.61719V4.57031C3.94753 4.57031 9.0527 4.57031 9.16602 4.57031V7.61719ZM5.35742 3.80859V3.42773C5.35742 2.79772 5.86998 2.28516 6.5 2.28516C7.13002 2.28516 7.64258 2.79772 7.64258 3.42773V3.80859H5.35742ZM9.16602 3.80859H8.4043V3.42773C8.4043 2.37771 7.55003 1.52344 6.5 1.52344C5.44997 1.52344 4.5957 2.37771 4.5957 3.42773V3.80859H3.83398V3.42773C3.83398 1.95769 5.02996 0.761719 6.5 0.761719C7.97004 0.761719 9.16602 1.95769 9.16602 3.42773V3.80859ZM10.7148 12.2383H9.92773V4.57031H10.7148C10.7148 4.81863 10.7148 11.9627 10.7148 12.2383ZM12.2383 11.8574C12.2383 12.0674 12.0674 12.2383 11.8574 12.2383H11.4766V8.2484C11.7619 8.14739 12.0194 7.99162 12.2383 7.79487V11.8574ZM12.2383 6.09375C12.2383 6.64777 11.9362 7.14622 11.4766 7.41292V4.57031H11.8574C12.0674 4.57031 12.2383 4.74117 12.2383 4.95117V6.09375Z" fill="white"/>
</svg>
